<svg xmlns="http://www.w3.org/2000/svg" width="76" height="119" viewBox="0 0 76 119">
    <g fill="none" fill-rule="evenodd">
        <path fill="#FFF" fill-rule="nonzero" d="M38.065 43.725v3c18.825 0 34.142 15.316 34.146 34.143.004 18.83-15.313 34.152-34.149 34.156-18.826 0-34.146-15.316-34.149-34.143-.004-18.83 15.313-34.152 34.15-34.156l.002-3zm-.003 0h-.007C17.538 43.729.909 60.364.912 80.881c.004 20.516 16.634 37.142 37.149 37.142h.007c20.517-.004 37.146-16.639 37.142-37.156-.003-20.515-16.633-37.144-37.148-37.142z"/>
        <path fill="#FFF" fill-rule="nonzero" d="M59.645 59.078h.005-.005zm-1.235-2.162c-.32 0-.614.074-.871.23-1.4.851-1.155 3.812.547 6.612 1.39 2.287 3.322 3.76 4.747 3.76.32 0 .614-.074.871-.23 1.4-.851 1.155-3.811-.547-6.612-1.391-2.287-3.323-3.76-4.747-3.76z"/>
        <path stroke="#FFF" stroke-linecap="round" stroke-linejoin="round" stroke-width="3" d="M17.402 59.208c1.265-.733 2.461-.895 3.145-.304 1.108.957.454 3.529-1.46 5.745s-4.364 3.236-5.472 2.279c-.723-.625-.696-1.939-.056-3.392M47.502 51.668c-.052 3.481-2.167 6.776-5.627 8.197-4.612 1.894-9.868-.263-11.738-4.817a8.792 8.792 0 0 1-.662-3.48"/>
        <g stroke="#FFF" stroke-linecap="round" stroke-linejoin="round" stroke-width="3">
            <path d="M31.583 89.637a10.224 10.224 0 0 1-3.127 2.954c-4.786 2.909-10.994 1.436-13.867-3.289-2.873-4.726-1.322-10.915 3.464-13.824a10.167 10.167 0 0 1 8.779-.88M32.622 80.156a9.836 9.836 0 0 1 .722 3.157"/>
        </g>
        <path stroke="#FFF" stroke-linecap="round" stroke-linejoin="round" stroke-width="3" d="M28.401 110.435c.143-.212.309-.412.499-.598 1.473-1.435 3.815-1.419 5.232.035.493.506.809 1.12.949 1.765"/>
        <g stroke="#FFF" stroke-linecap="round" stroke-linejoin="round" stroke-width="3">
            <path d="M43.288 98.073a5.257 5.257 0 0 1 1.062-4.712M48.379 91.451c1.786-.018 3.528.868 4.514 2.49 1.496 2.461.688 5.685-1.804 7.2a5.298 5.298 0 0 1-3.452.732"/>
        </g>
        <path stroke="#FFF" stroke-linecap="round" stroke-linejoin="round" stroke-width="3" d="M60.158 74.184a4.786 4.786 0 0 1-2.311 4.032c-2.254 1.37-5.179.677-6.532-1.549-1.353-2.226-.622-5.142 1.632-6.512a4.78 4.78 0 0 1 5.257.175"/>
        <g stroke="#DEDC00" stroke-linecap="round" stroke-linejoin="round" stroke-width="3">
            <path d="M37.758 1.5l.01 52.559M38.765 5.998l21.256-.004.003 16.659-21.902.005"/>
            <path d="M60.022 10.805l9.67-.002-4.088 9.192 4.092 9.191-17.504.003-.001-6.534"/>
        </g>
    </g>
</svg>
