<svg xmlns="http://www.w3.org/2000/svg" width="113" height="102" viewBox="0 0 113 102">
    <g fill="none" fill-rule="evenodd">
        <path stroke="#FFF" stroke-linecap="round" stroke-linejoin="round" stroke-width="3" d="M4.686 31.376L71.94 2.591c1.509-.658 3.162-.999 4.797-.81 4.306.498 8.028 3.698 8.962 8.159l.706 3.37"/>
        <path fill="#FFF" fill-rule="nonzero" d="M91.892 14.174a5.532 5.532 0 0 1 5.395 4.376l11.724 56.003a5.51 5.51 0 0 1-4.259 6.515L21.356 98.527a5.497 5.497 0 0 1-1.12.117 5.532 5.532 0 0 1-5.395-4.376L3.117 38.264a5.465 5.465 0 0 1 .789-4.134 5.463 5.463 0 0 1 3.47-2.381L90.772 14.29a5.495 5.495 0 0 1 1.12-.116zm0-3c-.572 0-1.153.059-1.734.18L6.761 28.813C2.183 29.771-.778 34.301.18 38.879l11.724 56.003c.837 3.997 4.395 6.761 8.332 6.761.572 0 1.153-.059 1.734-.18l83.396-17.459c4.578-.958 7.539-5.488 6.581-10.066l-11.724-56.003c-.837-3.997-4.395-6.762-8.331-6.761z"/>
        <g stroke="#DEDC00" stroke-linecap="round" stroke-linejoin="round" stroke-width="2">
            <path d="M9.268 40.72l2.936-.615"/>
            <path stroke-dasharray="5.8097,5.8097" d="M17.891 38.915l65.394-13.69"/>
            <path d="M86.128 24.629l2.936-.614"/>
        </g>
        <g stroke="#DEDC00" stroke-linecap="round" stroke-linejoin="round" stroke-width="2">
            <path d="M19.574 89.947l2.936-.614"/>
            <path stroke-dasharray="5.8097,5.8097" d="M28.196 88.142l65.394-13.69"/>
            <path d="M96.433 73.857l2.937-.615"/>
        </g>
        <path stroke="#FFF" stroke-linecap="round" stroke-linejoin="round" stroke-width="3" d="M106.97 62.411l-15.906 3.33c-8.999 1.884-17.902-3.937-19.786-12.936-1.884-8.999 3.937-17.902 12.936-19.786l15.508-3.247"/>
        <path fill="#FFF" fill-rule="nonzero" d="M89.419 45.557a3.881 3.881 0 0 1 3.78 3.078 3.874 3.874 0 0 1-3.794 4.663 3.881 3.881 0 0 1-3.78-3.078 3.84 3.84 0 0 1 .549-2.91 3.846 3.846 0 0 1 2.446-1.67c.263-.055.532-.083.799-.083zm-.001-3a6.87 6.87 0 1 0 0 0z"/>
    </g>
</svg>
